<?xml version="1.0"?>
<svg xmlns="http://www.w3.org/2000/svg" width="512" height="512" viewBox="0 0 512 512"><g><path d="M496,136H456V72a40.04,40.04,0,0,0-40-40H352a39.8,39.8,0,0,0-20,5.38A39.8,39.8,0,0,0,312,32H248a40.04,40.04,0,0,0-40,40v64H152a8,8,0,0,0-8,8v56.26c-2.65-.17-5.31-.26-8-.26a128,128,0,0,0,0,256c2.69,0,5.35-.09,8-.26V472a8,8,0,0,0,8,8H496a8,8,0,0,0,8-8V144A8,8,0,0,0,496,136ZM352,48h64a24.032,24.032,0,0,1,24,24v64H352V72a39.807,39.807,0,0,0-7.22-22.89A23.912,23.912,0,0,1,352,48ZM328,72a23.916,23.916,0,0,1,4-13.25A23.916,23.916,0,0,1,336,72v64h-8ZM224,72a24.032,24.032,0,0,1,24-24h64a23.912,23.912,0,0,1,7.22,1.11A39.807,39.807,0,0,0,312,72v64H224ZM136,440A112,112,0,1,1,248,328,112.123,112.123,0,0,1,136,440Zm256,24H160V453.73C219.15,442.47,264,390.38,264,328S219.15,213.53,160,202.27V152H392Zm96,0H408V152h80Z"/><path d="M456,200a8,8,0,0,0-16,0V420.686l-21.657,21.657a8,8,0,0,0,11.314,11.314L448,435.313l18.343,18.344a8,8,0,0,0,11.314-11.314L456,420.686Z"/><path d="M440,168v8a8,8,0,0,0,16,0v-8a8,8,0,0,0-16,0Z"/><path d="M224,304H168a39.808,39.808,0,0,0-24,8.02V312a40.04,40.04,0,0,0-40-40H48a8,8,0,0,0-8,8v32a40.04,40.04,0,0,0,40,40h48v48a8,8,0,0,0,16,0V384h48a40.04,40.04,0,0,0,40-40V312A8,8,0,0,0,224,304Zm-96,25.05L92.44,305.34a8,8,0,0,0-8.88,13.32L109.58,336H80a24.032,24.032,0,0,1-24-24V288h48a24.032,24.032,0,0,1,24,24ZM216,344a24.032,24.032,0,0,1-24,24H162.42l26.02-17.34a8,8,0,0,0-8.88-13.32L144,361.05V344a24.032,24.032,0,0,1,24-24h48Z"/></g></svg>
